# Blender 4.0.2
# www.blender.org
o BattleAxe
v 5.300475 0.506900 -0.438600
v -1.168281 0.401542 -0.000000
v 5.537443 0.665627 -0.415340
v -2.148669 0.606040 -0.000000
v 5.568623 0.909823 -0.379557
v 5.899130 0.671732 -0.414446
v -1.093098 0.320345 -0.000000
v 1.144352 0.317337 -0.000000
v 6.117390 0.934243 -0.375978
v 1.198483 0.368462 -0.000000
v 6.023850 1.483684 -0.295465
v 5.774410 1.972075 -0.223897
v 1.920242 0.392520 -0.000000
v 5.256823 2.271215 -0.180062
v 1.992417 0.308315 -0.000000
v 3.568256 0.332374 -0.000000
v 5.231879 2.735188 -0.112073
v 4.988676 3.028223 -0.069133
v 3.619380 0.368462 -0.000000
v 5.693342 3.211370 -0.042295
v 3.887033 0.371469 -0.000000
v 6.547673 3.266314 -0.034244
v 3.962216 0.482740 -0.000000
v 5.300475 0.510876 -0.000000
v 7.476835 3.180845 -0.046768
v -1.168281 0.200771 -0.347746
v 8.200211 3.003803 -0.072711
v 8.455886 2.887810 -0.089708
v 8.200211 2.619195 -0.129071
v -2.148669 0.303020 -0.524846
v -1.093098 0.160172 -0.277427
v 7.944535 2.161328 -0.196165
v 1.144352 0.158669 -0.274822
v 7.794871 1.770614 -0.253419
v 1.198483 0.184231 -0.319097
v 7.757455 1.239488 -0.331249
v 7.782399 0.793830 -0.396554
v 1.920242 0.196260 -0.339933
v 7.938298 0.671733 -0.414446
v 1.992417 0.154158 -0.267009
v 7.950770 0.555739 -0.431443
v 3.568256 0.166187 -0.287844
v 8.119143 0.256599 -0.475278
v 3.619380 0.184231 -0.319097
v 8.206447 0.000000 -0.512879
v 3.887033 0.185734 -0.321702
v 3.962216 0.241370 -0.418065
v -1.168281 -0.200771 -0.347746
v 4.905599 0.000000 -0.512879
v -2.148669 -0.303020 -0.524846
v -1.093098 -0.160172 -0.277427
v 1.144352 -0.158669 -0.274822
v 1.198483 -0.184231 -0.319097
v 1.920242 -0.196260 -0.339933
v 1.992417 -0.154158 -0.267009
v 3.568256 -0.166187 -0.287844
v 3.619380 -0.184231 -0.319097
v 3.887033 -0.185735 -0.321702
v 5.300475 -0.506900 -0.438600
v 3.962216 -0.241370 -0.418065
v 5.537443 -0.665628 -0.415340
v 5.568623 -0.909823 -0.379557
v 5.899130 -0.671733 -0.414446
v -1.168281 -0.401542 0.000000
v 6.117390 -0.934243 -0.375978
v -2.148669 -0.606040 0.000000
v 6.023850 -1.483684 -0.295465
v -1.093098 -0.320345 0.000000
v 5.774410 -1.972075 -0.223897
v 5.256823 -2.271215 -0.180062
v 1.144352 -0.317337 0.000000
v 5.231879 -2.735188 -0.112073
v 1.198483 -0.368462 0.000000
v 4.988676 -3.028223 -0.069133
v 1.920242 -0.392520 0.000000
v 5.693342 -3.211370 -0.042295
v 1.992417 -0.308315 0.000000
v 6.547673 -3.266314 -0.034244
v 3.568256 -0.332374 0.000000
v 3.619380 -0.368462 0.000000
v 7.476835 -3.180845 -0.046768
v 8.200211 -3.003804 -0.072711
v 3.887033 -0.371469 0.000000
v 8.455886 -2.887810 -0.089708
v 3.962216 -0.482740 0.000000
v 8.200211 -2.619195 -0.129071
v 5.300475 -0.510876 0.000000
v -1.168281 -0.200771 0.347746
v 7.944535 -2.161328 -0.196165
v 7.794871 -1.770614 -0.253419
v -2.332245 -0.000702 0.001217
v 7.757455 -1.239488 -0.331249
v 7.782399 -0.793830 -0.396554
v -2.148669 -0.303020 0.524846
v -1.093098 -0.160172 0.277427
v 7.938298 -0.671733 -0.414446
v 1.144352 -0.158669 0.274822
v 7.950771 -0.555739 -0.431443
v 1.198483 -0.184231 0.319097
v 8.119143 -0.256600 -0.475278
v 1.920242 -0.196260 0.339933
v 1.992417 -0.154158 0.267009
v 3.568256 -0.166187 0.287844
v 3.619380 -0.184231 0.319097
v 3.887033 -0.185734 0.321702
v 3.962216 -0.241370 0.418065
v -1.168281 0.200771 0.347746
v -2.148669 0.303020 0.524846
v -1.093098 0.160172 0.277426
v 5.300475 0.506900 0.438600
v 1.144352 0.158669 0.274822
v 1.198483 0.184231 0.319097
v 5.537442 0.665627 0.415340
v 1.920242 0.196260 0.339933
v 5.568623 0.909823 0.379557
v 1.992417 0.154158 0.267009
v 5.899130 0.671732 0.414446
v 3.568256 0.166187 0.287844
v 6.117390 0.934243 0.375978
v 6.023850 1.483683 0.295465
v 3.619380 0.184231 0.319097
v 5.774410 1.972076 0.223897
v 3.887033 0.185735 0.321702
v 3.962216 0.241370 0.418065
v 5.256824 2.271215 0.180062
v 5.231879 2.735188 0.112073
v 5.693342 3.211370 0.042295
v 6.547673 3.266314 0.034244
v 7.476835 3.180845 0.046768
v 8.200211 3.003803 0.072711
v 8.200211 2.619195 0.129071
v 7.944535 2.161328 0.196165
v 7.794871 1.770614 0.253419
v 7.757455 1.239488 0.331249
v 7.782399 0.793830 0.396554
v 7.950771 0.555739 0.431443
v 8.119143 0.256599 0.475278
v 8.206447 0.000000 0.512879
v 4.905599 0.000000 0.512879
v 5.300475 -0.506900 0.438600
v 5.537443 -0.665627 0.415340
v 5.568623 -0.909824 0.379557
v 5.899130 -0.671732 0.414446
v 6.117390 -0.934243 0.375978
v 6.023850 -1.483684 0.295465
v 5.774410 -1.972076 0.223897
v 5.256823 -2.271215 0.180062
v 5.231879 -2.735188 0.112073
v 4.988676 -3.028223 0.069133
v 5.693342 -3.211370 0.042295
v 6.547673 -3.266314 0.034244
v 7.476835 -3.180845 0.046768
v 8.200211 -3.003803 0.072711
v 8.455886 -2.887810 0.089708
v 8.200211 -2.619195 0.129071
v 7.944535 -2.161328 0.196165
v 7.794871 -1.770614 0.253419
v 7.757455 -1.239488 0.331249
v 7.782399 -0.793830 0.396554
v 7.938299 -0.671732 0.414446
v 7.950771 -0.555739 0.431443
v 8.119143 -0.256599 0.475278
v 5.105637 0.256787 -0.444768
v 4.905599 0.000000 -0.440097
v 5.105637 -0.256787 -0.444768
v 5.105637 -0.256787 0.444768
v 4.905599 0.000000 0.440097
v 5.105637 0.256787 0.444768
vn -0.5216 0.7389 -0.4266
vn -0.6331 0.6704 -0.3870
vn 0.7107 -0.0000 0.7035
vn -0.0289 0.8657 -0.4998
vn -0.7884 0.5327 -0.3076
vn -0.6331 -0.0000 -0.7741
vn 0.7107 0.6092 -0.3517
vn -0.9442 0.2853 -0.1647
vn -0.0000 0.1450 -0.9894
vn 0.1778 -0.0000 -0.9841
vn -0.5216 -0.0000 -0.8532
vn 0.1778 0.8522 0.4920
vn -0.0097 -0.0000 -1.0000
vn 0.0012 -0.0000 -1.0000
vn 0.1778 -0.8522 0.4920
vn -0.5004 0.8658 -0.0000
vn -0.9442 -0.0000 -0.3295
vn -0.7884 -0.0000 -0.6151
vn -0.0233 -0.0000 -0.9997
vn -0.9986 0.0537 -0.0000
vn -0.0097 -0.8660 0.5000
vn 0.6831 -0.0000 -0.7303
vn -0.7884 -0.5327 0.3076
vn -0.5216 -0.7389 -0.4266
vn -0.9439 -0.2859 -0.1651
vn -0.0289 0.8657 0.4998
vn -0.5216 -0.7389 0.4266
vn -0.0233 0.8658 0.4999
vn 0.1778 0.8522 -0.4920
vn 0.6831 -0.6325 0.3652
vn -0.0132 -0.0000 0.9999
vn -0.9437 -0.2865 0.1654
vn -0.0132 -0.8659 0.5000
vn -0.5216 -0.0000 0.8532
vn 0.0012 -0.8660 0.5000
vn -0.6331 -0.0000 0.7741
vn -0.9919 -0.1267 -0.0000
vn 0.6831 -0.0000 0.7303
vn -0.0289 -0.8657 0.4998
vn -0.9437 -0.0000 0.3308
vn -0.0233 -0.0000 0.9997
vn 0.0012 -0.0000 1.0000
vn 0.6831 0.6325 0.3652
vn -0.7884 0.5327 0.3076
vn -0.7884 -0.5327 -0.3076
vn 0.7107 -0.6092 -0.3517
vn -0.0097 0.8660 0.5000
vn -0.9439 0.2859 0.1651
vn 0.1778 -0.8522 -0.4920
vn -0.0132 0.8659 0.5000
vn -0.0183 -0.8716 0.4899
vn -0.0097 -0.0000 1.0000
vn -0.6331 0.6704 0.3870
vn -0.6331 -0.6704 0.3870
vn -0.0000 -0.1450 0.9894
vn 0.0012 0.8660 -0.5000
vn 0.9984 0.0559 -0.0000
vn -0.7889 -0.6145 -0.0000
vn -0.0132 -0.8659 -0.5000
vn -0.0642 0.9979 -0.0000
vn 0.9467 0.3221 -0.0000
vn -0.5004 -0.8658 -0.0000
vn -0.9858 0.1678 -0.0000
vn 0.9975 -0.0703 -0.0000
vn 0.0916 0.9958 -0.0000
vn 0.8731 -0.4875 -0.0000
vn -0.2516 0.9678 -0.0000
vn 0.5845 0.8114 -0.0000
vn 0.7243 -0.6894 -0.0000
vn -0.0289 -0.0000 -0.9996
vn -0.9986 -0.0537 -0.0000
vn 0.1778 -0.0000 0.9841
vn -0.9919 0.1267 -0.0000
vn 0.9975 0.0703 -0.0000
vn -0.7689 -0.6393 -0.0000
vn -0.5216 0.7389 0.4266
vn -0.0642 -0.9979 -0.0000
vn 0.5845 -0.8114 -0.0000
vn -0.7689 0.6393 -0.0000
vn 0.4131 -0.9107 -0.0000
vn -0.2515 -0.9678 -0.0000
vn 0.2377 -0.9713 -0.0000
vn 0.9984 -0.0559 -0.0000
vn 0.0916 -0.9958 -0.0000
vn -0.7695 0.6386 -0.0000
vn 0.9943 -0.1069 -0.0000
vn 0.8714 -0.4905 -0.0000
vn 0.8731 0.4875 -0.0000
vn -0.0132 0.8659 -0.5000
vn -0.0183 -0.8716 -0.4899
vn 0.6831 -0.6325 -0.3652
vn 0.0012 0.8660 0.5000
vn 0.7107 -0.6092 0.3517
vn 0.7107 0.6092 0.3517
vn -0.7884 -0.0000 0.6151
vn -0.0097 -0.8660 -0.5000
vn -0.0289 -0.0000 0.9996
vn -0.9858 -0.1678 -0.0000
vn -0.6331 -0.6704 -0.3870
vn -0.0289 -0.8657 -0.4998
vn -0.0132 -0.0000 -0.9999
vn 0.9467 -0.3221 -0.0000
vn -0.0097 0.8660 -0.5000
vn -0.0000 -0.1450 -0.9894
vn 0.2377 0.9713 -0.0000
vn 0.0012 -0.8660 -0.5000
vn 0.7107 -0.0000 -0.7035
vn -0.7695 -0.6386 -0.0000
vn -0.0000 0.1450 0.9894
vn -0.8906 0.4548 -0.0000
vn 0.9338 -0.3577 -0.0000
vn 0.7243 0.6894 -0.0000
vn 0.9338 0.3577 -0.0000
vn -0.5560 0.8312 0.0075
vn 0.4131 0.9107 -0.0000
vn 0.6166 0.7873 -0.0000
vn -0.7889 0.6145 -0.0000
vn -0.7936 -0.6085 -0.0000
vn -0.8906 -0.4548 -0.0000
vn -0.5560 -0.8312 0.0075
vn 0.8714 0.4905 -0.0000
vn -0.7936 0.6085 -0.0000
vn -0.0183 0.8716 -0.4899
vn 0.6831 0.6325 -0.3652
vn 0.6166 -0.7873 -0.0000
vn -0.0183 0.8716 0.4899
vn -0.0233 -0.8658 0.4999
vn -0.7888 -0.6146 -0.0056
vn -0.0132 -0.8660 -0.5000
vn 0.5703 0.1191 0.8127
vn -0.0233 -0.8658 -0.4999
vn -0.2365 0.3614 0.9019
vn -0.5468 0.8373 -0.0000
vn -0.5560 0.8312 -0.0075
vn -0.7888 0.6146 -0.0056
vn -0.7888 -0.6146 0.0056
vn -0.5560 -0.8312 -0.0075
vn -0.5468 -0.8373 -0.0000
vn 0.9943 0.1069 -0.0000
vn 0.8099 0.5827 0.0680
vn -0.7888 0.6146 0.0056
vn -0.0233 0.8658 -0.4999
s 0
f 44//1 16//1 19//1
f 35//2 8//2 10//2
f 102//3 114//3 101//3
f 35//4 13//4 38//4
f 47//5 21//5 23//5
f 53//6 33//6 35//6
f 15//7 38//7 13//7
f 4//8 30//8 91//8
f 6//9 9//9 37//9
f 50//10 26//10 48//10
f 57//11 42//11 44//11
f 107//12 4//12 108//12
f 57//13 46//13 58//13
f 51//14 33//14 52//14
f 94//15 64//15 88//15
f 70//16 146//16 69//16
f 30//17 50//17 91//17
f 60//18 46//18 47//18
f 47//19 163//19 164//19
f 148//20 70//20 72//20
f 83//21 104//21 80//21
f 31//22 48//22 26//22
f 106//23 83//23 85//23
f 80//24 56//24 57//24
f 50//25 66//25 91//25
f 10//26 114//26 13//26
f 104//27 79//27 80//27
f 168//28 23//28 124//28
f 30//29 2//29 26//29
f 68//30 88//30 64//30
f 116//31 103//31 118//31
f 66//32 94//32 91//32
f 103//33 77//33 79//33
f 121//34 103//34 104//34
f 95//35 71//35 97//35
f 112//36 97//36 99//36
f 61//37 142//37 141//37
f 95//38 107//38 88//38
f 99//39 75//39 101//39
f 94//40 108//40 91//40
f 106//41 166//41 167//41
f 109//42 97//42 111//42
f 109//43 2//43 107//43
f 23//44 123//44 124//44
f 85//45 58//45 60//45
f 55//46 75//46 54//46
f 123//47 19//47 121//47
f 108//48 4//48 91//48
f 66//49 48//49 64//49
f 15//50 118//50 16//50
f 166//51 85//51 87//51
f 105//52 121//52 104//52
f 10//53 111//53 112//53
f 99//54 71//54 73//54
f 152//55 153//55 155//55
f 8//56 31//56 7//56
f 36//57 135//57 37//57
f 165//58 49//58 59//58
f 77//59 56//59 79//59
f 22//60 127//60 128//60
f 43//61 138//61 45//61
f 12//62 125//62 14//62
f 65//63 145//63 144//63
f 36//64 133//64 134//64
f 25//65 128//65 129//65
f 32//66 131//66 132//66
f 18//67 127//67 20//67
f 6//68 115//68 117//68
f 28//69 131//69 29//69
f 38//70 53//70 35//70
f 14//71 126//71 17//71
f 108//72 88//72 107//72
f 3//73 115//73 5//73
f 92//74 157//74 90//74
f 63//75 144//75 143//75
f 16//76 121//76 19//76
f 76//77 151//77 150//77
f 63//78 142//78 62//78
f 6//79 119//79 9//79
f 84//80 153//80 82//80
f 74//81 150//81 149//81
f 82//82 152//82 81//82
f 93//83 158//83 92//83
f 152//84 78//84 81//84
f 149//85 72//85 74//85
f 96//86 161//86 160//86
f 100//87 161//87 98//87
f 156//88 86//88 89//88
f 42//89 15//89 16//89
f 85//90 165//90 87//90
f 51//91 64//91 48//91
f 8//92 109//92 111//92
f 77//93 101//93 75//93
f 116//94 13//94 114//94
f 124//95 105//95 106//95
f 58//96 80//96 57//96
f 101//97 112//97 99//97
f 9//98 120//98 11//98
f 73//99 52//99 53//99
f 54//100 73//100 53//100
f 55//101 42//101 56//101
f 45//102 162//102 100//102
f 21//103 44//103 19//103
f 72//104 69//104 76//104
f 27//105 129//105 130//105
f 71//106 51//106 52//106
f 40//107 54//107 38//107
f 126//108 18//108 17//108
f 135//109 119//109 117//109
f 67//110 146//110 145//110
f 34//111 132//111 133//111
f 84//112 155//112 154//112
f 89//113 157//113 156//113
f 24//114 110//114 113//114
f 28//115 27//115 130//115
f 39//116 37//116 135//116
f 49//117 163//117 1//117
f 165//118 87//118 166//118
f 11//119 122//119 12//119
f 139//58 166//58 140//58
f 141//120 140//120 87//120
f 136//121 137//121 41//121
f 168//117 139//117 110//117
f 168//122 24//122 163//122
f 163//123 23//123 24//123
f 7//124 26//124 2//124
f 96//125 159//125 93//125
f 44//1 42//1 16//1
f 35//2 33//2 8//2
f 102//3 116//3 114//3
f 35//4 10//4 13//4
f 47//5 46//5 21//5
f 53//6 52//6 33//6
f 15//7 40//7 38//7
f 17//9 18//9 20//9
f 20//9 22//9 12//9
f 22//9 25//9 34//9
f 12//9 22//9 34//9
f 25//9 27//9 29//9
f 27//9 28//9 29//9
f 17//9 20//9 12//9
f 12//9 14//9 17//9
f 25//9 29//9 32//9
f 25//9 32//9 34//9
f 11//9 12//9 34//9
f 9//9 11//9 36//9
f 36//9 11//9 34//9
f 37//9 39//9 41//9
f 36//9 37//9 9//9
f 37//9 41//9 6//9
f 41//9 43//9 6//9
f 43//9 45//9 6//9
f 45//9 49//9 6//9
f 49//9 1//9 6//9
f 1//9 3//9 6//9
f 3//9 5//9 6//9
f 50//10 30//10 26//10
f 57//11 56//11 42//11
f 107//12 2//12 4//12
f 57//13 44//13 46//13
f 51//14 31//14 33//14
f 94//15 66//15 64//15
f 70//16 147//16 146//16
f 60//18 58//18 46//18
f 165//19 60//19 164//19
f 60//19 47//19 164//19
f 148//20 147//20 70//20
f 83//21 105//21 104//21
f 31//22 51//22 48//22
f 106//23 105//23 83//23
f 80//24 79//24 56//24
f 10//26 112//26 114//26
f 104//27 103//27 79//27
f 168//126 24//126 23//126
f 30//29 4//29 2//29
f 68//30 95//30 88//30
f 116//31 102//31 103//31
f 103//33 102//33 77//33
f 121//34 118//34 103//34
f 95//35 68//35 71//35
f 112//36 111//36 97//36
f 61//37 62//37 142//37
f 95//38 109//38 107//38
f 99//39 73//39 75//39
f 168//41 124//41 167//41
f 124//41 106//41 167//41
f 109//42 95//42 97//42
f 109//43 7//43 2//43
f 23//44 21//44 123//44
f 85//45 83//45 58//45
f 55//46 77//46 75//46
f 123//47 21//47 19//47
f 66//49 50//49 48//49
f 15//50 116//50 118//50
f 166//127 106//127 85//127
f 105//52 123//52 121//52
f 10//53 8//53 111//53
f 99//54 97//54 71//54
f 139//55 140//55 143//55
f 140//55 141//55 143//55
f 141//55 142//55 143//55
f 162//55 138//55 143//55
f 138//55 139//55 143//55
f 159//55 160//55 161//55
f 161//55 162//55 143//55
f 159//55 161//55 143//55
f 159//55 143//55 144//55
f 158//55 159//55 144//55
f 158//55 144//55 145//55
f 157//55 158//55 145//55
f 146//55 147//55 148//55
f 157//55 145//55 146//55
f 156//55 157//55 152//55
f 157//55 146//55 151//55
f 148//55 149//55 150//55
f 157//55 151//55 152//55
f 146//55 148//55 150//55
f 151//55 146//55 150//55
f 153//55 154//55 155//55
f 155//55 156//55 152//55
f 8//56 33//56 31//56
f 36//57 134//57 135//57
f 165//58 164//58 49//58
f 59//128 87//128 165//128
f 77//129 55//129 56//129
f 22//60 20//60 127//60
f 43//61 137//61 138//61
f 12//62 122//62 125//62
f 65//63 67//63 145//63
f 36//64 34//64 133//64
f 25//65 22//65 128//65
f 32//66 29//66 131//66
f 6//68 5//68 115//68
f 28//130 130//130 131//130
f 38//70 54//70 53//70
f 14//71 125//71 126//71
f 108//72 94//72 88//72
f 3//73 113//73 115//73
f 92//74 158//74 157//74
f 63//75 65//75 144//75
f 16//76 118//76 121//76
f 76//77 78//77 151//77
f 63//78 143//78 142//78
f 6//79 117//79 119//79
f 84//80 154//80 153//80
f 74//81 76//81 150//81
f 82//82 153//82 152//82
f 93//83 159//83 158//83
f 152//84 151//84 78//84
f 149//85 148//85 72//85
f 96//86 98//86 161//86
f 100//87 162//87 161//87
f 156//88 155//88 86//88
f 42//89 40//89 15//89
f 85//131 60//131 165//131
f 51//91 68//91 64//91
f 8//92 7//92 109//92
f 77//93 102//93 101//93
f 116//94 15//94 13//94
f 124//95 123//95 105//95
f 58//96 83//96 80//96
f 101//97 114//97 112//97
f 9//98 119//98 120//98
f 73//99 71//99 52//99
f 54//100 75//100 73//100
f 55//101 40//101 42//101
f 45//102 138//102 162//102
f 21//103 46//103 44//103
f 49//104 45//104 63//104
f 45//104 100//104 63//104
f 98//104 96//104 93//104
f 100//104 98//104 63//104
f 61//104 59//104 63//104
f 59//104 49//104 63//104
f 63//104 62//104 61//104
f 98//104 93//104 63//104
f 93//104 92//104 65//104
f 63//104 93//104 65//104
f 92//104 90//104 67//104
f 65//104 92//104 67//104
f 90//104 89//104 81//104
f 67//104 90//104 69//104
f 69//104 90//104 78//104
f 86//104 84//104 82//104
f 89//104 86//104 81//104
f 72//104 70//104 69//104
f 78//104 90//104 81//104
f 86//104 82//104 81//104
f 78//104 76//104 69//104
f 76//104 74//104 72//104
f 27//105 25//105 129//105
f 71//106 68//106 51//106
f 40//107 55//107 54//107
f 126//132 127//132 18//132
f 132//109 131//109 129//109
f 131//109 130//109 129//109
f 129//109 128//109 133//109
f 132//109 129//109 133//109
f 128//109 127//109 122//109
f 127//109 126//109 122//109
f 126//109 125//109 122//109
f 128//109 122//109 133//109
f 122//109 120//109 133//109
f 120//109 119//109 134//109
f 134//109 133//109 120//109
f 137//109 136//109 117//109
f 136//109 135//109 117//109
f 135//109 134//109 119//109
f 138//109 137//109 117//109
f 110//109 139//109 117//109
f 139//109 138//109 117//109
f 117//109 115//109 113//109
f 113//109 110//109 117//109
f 67//110 69//110 146//110
f 34//111 32//111 132//111
f 84//112 86//112 155//112
f 89//113 90//113 157//113
f 113//133 3//133 24//133
f 3//134 1//134 24//134
f 49//117 164//117 163//117
f 163//135 24//135 1//135
f 166//58 167//58 164//58
f 164//58 165//58 166//58
f 11//119 120//119 122//119
f 139//58 167//58 166//58
f 166//136 87//136 140//136
f 59//137 61//137 87//137
f 61//138 141//138 87//138
f 137//121 43//121 41//121
f 41//139 39//139 136//139
f 39//140 135//140 136//140
f 168//117 167//117 139//117
f 110//141 24//141 168//141
f 163//117 164//117 167//117
f 167//117 168//117 163//117
f 163//142 47//142 23//142
f 7//124 31//124 26//124
f 96//125 160//125 159//125
